REM Generated by IcecastMetadataRecorder
REM 2020-07-29T21:16:11.222Z
TITLE "isics-all"
FILE "isics-all.mp3" WAVE
  TRACK 1 AUDIO
    TITLE "2020-07-29T21:24:54.134Z TO:P:24605 [14002] Dallas County Law 1, Region 4 Interoperability Tac 42 FROM:10987"
    INDEX 01 08:42:67
  TRACK 2 AUDIO
    TITLE "2020-07-29T21:24:59.734Z TO:177 Polk County - Westcom Fire 2 FROM:1932"
    INDEX 01 08:48:38
  TRACK 3 AUDIO
    TITLE "2020-07-29T21:25:03.222Z TO:1101 Polk County - Westcom Law Enforcement 1 FROM:1004"
    INDEX 01 08:52:00
  TRACK 4 AUDIO
    TITLE "2020-07-29T21:25:09.526Z TO:1102 Polk County - Westcom Law Enforcement 2 FROM:1377"
    INDEX 01 08:58:22
  TRACK 5 AUDIO
    TITLE "2020-07-29T21:25:13.046Z TO:177 Polk County - Westcom Fire 2 FROM:1007"
    INDEX 01 09:01:61
  TRACK 6 AUDIO
    TITLE "2020-07-29T21:25:15.126Z TO:1101 Polk County - Westcom Law Enforcement 1 FROM:UNKNOWN"
    INDEX 01 09:03:67
  TRACK 7 AUDIO
    TITLE "2020-07-29T21:25:15.830Z TO:1102 Polk County - Westcom Law Enforcement 2 FROM:1006"
    INDEX 01 09:04:45
  TRACK 8 AUDIO
    TITLE "2020-07-29T21:25:18.646Z TO:P:24605 [14002] Dallas County Law 1, Region 4 Interoperability Tac 42 FROM:11360"
    INDEX 01 09:07:31
  TRACK 9 AUDIO
    TITLE "2020-07-29T21:25:20.726Z TO:177 Polk County - Westcom Fire 2 FROM:1007"
    INDEX 01 09:09:37
  TRACK 10 AUDIO
    TITLE "END"
    INDEX 01 09:12:24